<?xml version="1.0" standalone="no"?>
<!DOCTYPE svg PUBLIC "-//W3C//DTD SVG 20010904//EN"
 "http://www.w3.org/TR/2001/REC-SVG-20010904/DTD/svg10.dtd">
<svg version="1.0" xmlns="http://www.w3.org/2000/svg"
 width="1847.000000pt" height="551.000000pt" viewBox="0 0 1847.000000 551.000000"
 preserveAspectRatio="xMidYMid meet">

<g transform="translate(0.000000,551.000000) scale(0.100000,-0.100000)"
fill="#000000" stroke="none">
<path d="M14173 4659 c-59 -29 -148 -128 -160 -176 -7 -32 -17 -42 -61 -66
-64 -35 -107 -89 -198 -252 -37 -66 -85 -146 -106 -179 -73 -106 -130 -260
-189 -501 -46 -193 -59 -288 -69 -493 -11 -268 -19 -276 -164 -197 -203 110
-379 98 -522 -37 -90 -85 -128 -164 -190 -391 -27 -100 -32 -132 -23 -143 36
-44 163 -90 272 -100 93 -8 183 8 263 45 92 43 129 74 143 121 15 50 106 145
175 183 104 57 165 56 185 -5 20 -59 51 -87 136 -118 44 -17 93 -30 108 -30
37 0 80 23 142 75 62 53 110 78 135 70 23 -7 40 -54 40 -109 0 -44 22 -86 45
-86 20 0 74 48 99 89 42 68 75 161 100 278 32 149 44 185 108 309 30 59 49
108 45 117 -8 21 -80 40 -120 31 -52 -11 -106 -43 -154 -90 -67 -68 -83 -110
-83 -229 0 -128 -14 -158 -94 -200 -34 -18 -66 -45 -82 -68 -30 -45 -63 -60
-113 -51 -110 20 -214 120 -227 217 -4 35 1 55 31 116 45 92 84 147 203 281
106 118 142 177 206 337 143 357 271 933 253 1143 -11 127 -44 154 -134 109z
m-55 -433 c9 -101 -66 -337 -223 -701 -56 -132 -108 -258 -115 -279 -14 -44
-80 -120 -123 -142 -22 -12 -32 -13 -43 -3 -35 29 -1 222 81 459 154 442 409
843 423 666z m-910 -1522 c33 -22 29 -64 -13 -116 -60 -74 -113 -158 -120
-188 -20 -90 -255 -168 -329 -109 -53 42 -25 138 82 270 70 87 148 145 212
158 55 12 137 4 168 -15z"/>
<path d="M11900 4383 c-8 -3 -38 -27 -66 -53 -28 -25 -112 -87 -185 -137 -227
-155 -260 -187 -391 -384 -355 -535 -548 -969 -550 -1240 -2 -249 164 -353
597 -375 129 -6 416 7 570 26 l80 10 50 57 c126 143 138 153 194 168 88 23
128 77 77 104 -59 32 -63 148 -5 189 10 6 23 28 29 46 19 58 -10 131 -75 189
-37 34 -148 81 -200 85 -44 4 -55 0 -82 -22 -17 -14 -34 -37 -37 -50 -8 -32
-81 -95 -157 -136 -76 -40 -139 -96 -139 -122 0 -10 -13 -31 -29 -46 -40 -38
-47 -55 -71 -178 -38 -193 -74 -219 -310 -219 -119 0 -140 2 -175 22 -85 45
-116 106 -116 222 1 147 52 293 221 626 158 312 201 385 281 470 47 51 71 86
79 116 22 80 286 315 345 307 11 -2 26 -16 34 -33 18 -38 4 -111 -39 -203 -58
-124 -33 -191 74 -200 49 -4 56 -2 70 20 10 15 19 64 25 128 11 118 19 147 70
240 32 59 36 72 36 145 0 98 -27 163 -85 201 -38 26 -94 38 -120 27z m19
-1854 c64 -127 64 -144 -6 -185 -37 -22 -61 -28 -106 -29 -54 0 -61 3 -88 32
-38 43 -44 74 -28 131 9 34 29 63 70 105 80 83 90 80 158 -54z"/>
<path d="M8030 3809 c-173 -37 -341 -140 -449 -275 -172 -214 -211 -518 -92
-717 83 -141 213 -216 413 -238 109 -12 154 -29 230 -90 15 -13 42 -22 65 -23
34 -1 40 3 55 34 27 56 48 203 53 370 4 175 -7 297 -33 350 -33 67 -118 47
-161 -38 -30 -61 -41 -130 -45 -285 -1 -81 -5 -149 -8 -152 -3 -3 -69 -7 -146
-8 l-140 -2 -32 30 c-93 89 -146 346 -110 535 16 84 28 99 115 145 44 23 107
58 139 78 298 183 685 87 974 -242 78 -90 111 -147 112 -194 0 -50 -32 -171
-60 -227 -61 -119 -283 -356 -453 -481 -100 -75 -118 -84 -292 -149 -249 -93
-355 -150 -342 -183 22 -57 134 -66 310 -23 179 43 287 93 462 214 316 219
431 343 503 541 34 93 35 101 35 236 0 131 -3 146 -32 229 -101 290 -347 502
-656 566 -124 26 -295 25 -415 -1z"/>
<path d="M5645 3736 c-30 -30 -41 -70 -60 -231 -34 -286 -80 -489 -181 -798
-59 -178 -79 -297 -54 -312 21 -13 106 -6 152 12 67 26 110 58 151 112 71 93
174 143 297 143 96 0 170 -19 323 -86 146 -64 218 -80 326 -74 113 7 191 55
191 117 0 32 -43 52 -128 63 -183 22 -223 36 -462 166 -98 52 -159 70 -206 58
-15 -4 -59 -38 -98 -75 -85 -81 -113 -101 -143 -101 -68 0 -72 102 -13 299 68
227 84 319 85 471 0 122 -2 139 -23 178 -17 31 -35 49 -65 63 -54 24 -63 24
-92 -5z"/>
<path d="M1115 3623 c-171 -19 -443 -161 -525 -275 -24 -33 -30 -51 -30 -92 0
-68 -23 -103 -107 -162 -37 -26 -79 -57 -91 -68 -34 -30 -62 -89 -62 -130 0
-46 -16 -86 -35 -86 -31 0 -55 38 -55 86 0 66 -28 57 -59 -21 -29 -73 -39
-191 -21 -267 30 -130 117 -249 213 -294 64 -29 165 -32 362 -9 264 31 400 59
432 91 32 32 26 63 -17 92 -32 22 -42 24 -120 18 -47 -3 -116 -10 -155 -15
-140 -20 -321 -11 -398 20 -59 24 -93 160 -67 270 57 245 347 499 638 558 184
38 615 14 757 -41 17 -6 45 -24 63 -40 20 -17 44 -28 62 -28 207 0 509 -220
611 -446 61 -135 33 -244 -102 -388 -77 -83 -190 -164 -266 -191 -26 -10 -120
-51 -208 -92 -240 -113 -393 -173 -732 -287 -457 -155 -664 -249 -770 -352
-58 -55 -66 -84 -31 -108 44 -31 68 -24 365 98 61 26 146 53 188 61 42 8 88
24 101 34 14 11 39 23 57 26 119 24 475 152 757 272 96 41 257 108 358 149
101 41 207 87 235 102 29 15 55 28 58 30 4 2 15 -17 24 -42 10 -26 26 -47 39
-52 29 -10 700 -12 1361 -4 612 8 642 11 773 75 39 20 99 61 131 91 32 30 65
54 73 54 48 0 97 84 98 167 0 45 -5 57 -40 102 -23 29 -86 87 -140 131 l-99
79 126 113 c154 137 183 175 183 235 0 55 -22 108 -50 123 -62 33 -127 5 -255
-109 -95 -85 -175 -140 -310 -211 l-100 -53 -118 52 c-158 70 -208 84 -302 85
-89 0 -126 -13 -183 -68 -43 -40 -64 -82 -91 -179 -12 -43 -32 -99 -45 -125
-25 -51 -24 -65 7 -99 43 -48 75 -26 165 108 150 225 298 220 278 -9 -7 -91
-23 -118 -76 -132 -22 -5 -57 -14 -79 -20 -54 -14 -83 -40 -119 -108 -56 -104
-133 -163 -213 -162 -44 1 -107 37 -133 77 -14 21 -31 63 -37 94 -10 48 -8 68
16 165 34 145 32 218 -7 247 -27 20 -33 20 -160 9 -178 -15 -310 -39 -383 -68
-32 -13 -60 -22 -61 -21 -1 1 -18 54 -39 117 -53 164 -84 220 -173 309 -143
144 -318 240 -607 331 -127 41 -212 61 -520 125 -311 64 -301 63 -340 58z
m3434 -978 c95 -45 221 -188 221 -253 0 -48 -69 -80 -241 -112 -107 -20 -195
-48 -327 -104 -77 -33 -135 -33 -140 1 -5 37 27 84 111 163 203 190 217 205
217 249 0 81 60 102 159 56z m-1474 -130 c53 -52 15 -177 -78 -261 -62 -56
-112 -72 -169 -55 -41 13 -118 77 -118 99 0 6 13 20 30 32 20 14 32 33 36 58
9 49 29 77 71 103 53 33 102 48 156 49 38 0 53 -5 72 -25z"/>
<path d="M11735 3588 c-3 -13 -9 -51 -14 -85 -20 -129 -99 -222 -218 -255 -44
-12 -103 -67 -103 -96 0 -32 47 -80 90 -93 35 -11 43 -10 72 11 42 29 219 229
270 305 63 94 63 130 -2 195 -46 46 -87 54 -95 18z"/>
<path d="M14513 3593 c-61 -12 -79 -102 -47 -227 49 -191 169 -160 181 49 10
157 -22 200 -134 178z"/>
<path d="M17169 3202 c-66 -43 -145 -137 -191 -229 -48 -98 -49 -99 -226 -107
-286 -14 -425 -86 -473 -248 -14 -47 -11 -196 5 -305 16 -103 30 -128 102
-179 62 -45 145 -64 301 -72 l136 -7 14 -40 c50 -146 143 -873 143 -1125 0
-192 -38 -360 -95 -417 -82 -82 -178 -16 -305 210 -35 62 -87 138 -116 171
-82 90 -107 187 -80 308 24 108 73 185 197 308 117 115 144 151 135 176 -20
52 -291 -74 -403 -186 -232 -233 -171 -599 160 -965 96 -107 196 -198 244
-221 55 -28 241 -27 297 0 187 93 227 378 150 1066 -25 225 -102 745 -120 812
-27 99 -24 200 8 276 35 84 67 130 99 141 22 8 29 19 38 63 7 29 34 103 60
163 64 144 81 204 81 287 0 79 -16 118 -55 136 -39 18 -56 15 -106 -16z m-350
-461 c31 -31 34 -78 12 -165 -48 -182 -167 -299 -259 -252 -94 49 -104 152
-24 268 92 134 218 202 271 149z"/>
<path d="M1655 3095 c-44 -22 -125 -86 -148 -116 -17 -24 -18 -29 -4 -50 20
-32 42 -142 62 -313 19 -166 30 -217 56 -245 24 -26 73 -27 128 -5 67 27 72
66 46 406 -24 325 -44 370 -140 323z"/>
<path d="M15441 3094 c-18 -10 -44 -34 -56 -53 -25 -38 -50 -148 -39 -175 9
-24 44 -20 116 14 77 36 132 40 149 9 18 -35 4 -100 -56 -250 -66 -165 -75
-226 -47 -339 l18 -75 39 -7 c66 -11 134 -9 170 6 99 42 118 156 27 156 -31 0
-44 25 -44 82 1 44 12 73 73 194 63 127 72 151 76 211 5 80 -12 120 -67 165
-82 65 -284 100 -359 62z"/>
<path d="M14915 3016 c-62 -19 -100 -42 -129 -76 -33 -39 -22 -67 29 -75 19
-3 51 -8 71 -11 42 -6 74 -35 74 -67 0 -41 -48 -120 -134 -219 -90 -106 -127
-176 -150 -281 l-14 -67 72 0 c88 0 114 14 190 107 31 37 79 95 106 128 28 33
55 77 61 98 6 22 32 62 61 94 27 30 56 71 64 89 45 106 -21 239 -139 283 -37
14 -112 13 -162 -3z"/>
<path d="M1295 2613 c-72 -38 -120 -108 -94 -139 29 -35 134 0 189 62 36 41
38 58 8 78 -28 20 -64 20 -103 -1z"/>
<path d="M9161 2393 c-24 -8 -64 -35 -88 -59 -44 -42 -46 -45 -40 -91 15 -137
247 -195 353 -89 134 134 -29 308 -225 239z"/>
<path d="M18232 2370 c-35 -15 -46 -55 -32 -120 16 -72 65 -191 91 -218 31
-34 64 -28 83 13 52 110 63 200 29 257 -34 59 -113 91 -171 68z"/>
</g>
</svg>
